<svg xmlns="http://www.w3.org/2000/svg" viewBox="0 0 110 40.03"><defs><style>.cls-1{fill:#5e9dab;}</style></defs><g id="圖層_2" data-name="圖層 2"><g id="圖層_1-2" data-name="圖層 1"><path class="cls-1" d="M110,25.38l-.33-2.69c-.08,0-1.92.61-5,1.47L102.07,6.75c2.36-.65,3.72-1.09,3.78-1.11l-.17-1.34c-.06,0-1.43.46-3.8,1.12L101.08,0,99.42.64l.77,5.24c-8.8,2.36-26.86,6.53-44.76,6.6H55c-14.41,0-29-2.7-38.76-5v0l-.82-.38,0,.2c-2.12-.5-4-1-5.56-1.41L10.59.63,8.92,0,8.13,5.4C5.75,4.74,4.38,4.3,4.32,4.29L4.15,5.63c.06,0,1.43.45,3.78,1.11L5.37,24.15c-3.11-.86-5-1.45-5-1.47L0,25.36c.07,0,1.9.6,5,1.46L3.07,39.4,4.73,40,6.66,27.28C16.71,30,36.44,34.63,54.15,34.79H55c17.93,0,38.14-4.76,48.34-7.51L105.14,40l1.66-.63L105,26.83C108.1,26,109.93,25.4,110,25.38ZM67.37,13.25c2.41-.22,4.78-.49,7.08-.8l.39,18.05c-2.41.34-4.86.64-7.33.89Zm-.71,18.22c-2.37.23-4.75.39-7.11.49l.05-18.19h-.23c2.4-.09,4.79-.24,7.15-.44Zm8.65-19.14c2.2-.31,4.35-.65,6.42-1l1.85,17.72c-2.54.47-5.19.92-7.89,1.32Zm7.27-1.15c2-.36,4-.74,5.79-1.12l2.18,17.58c-2,.42-4,.84-6.12,1.24Zm6.64-1.3c2-.43,3.94-.86,5.68-1.28L97.44,26c-1.86.46-3.89.94-6,1.41ZM28.91,11.42c2.08.35,4.24.69,6.45,1l-.39,18c-2.7-.39-5.36-.83-7.92-1.3ZM26.2,29c-2.12-.39-4.17-.81-6.13-1.23l2.19-17.59c1.84.38,3.78.75,5.8,1.1Zm10-16.47c2.31.31,4.67.56,7.08.78l-.14,18.15c-2.46-.24-4.91-.53-7.33-.87Zm7.93.85c2.29.18,4.6.32,6.92.39L51.13,32c-2.36-.09-4.74-.25-7.12-.46ZM21.41,10,19.22,27.57c-2.25-.49-4.37-1-6.32-1.46L16,8.8C17.67,9.19,19.48,9.6,21.41,10ZM9.62,7.2c1.56.42,3.42.9,5.52,1.4L12.05,25.9c-1.84-.46-3.52-.89-5-1.29ZM55,32.05c-1,0-2,0-3,0l0-18.21c.88,0,1.76,0,2.64,0l.43,0c1.25,0,2.5,0,3.75-.07L58.7,32c-1,0-1.9.06-2.84.07Zm43.28-6.22L95.75,8.4C97.48,8,99,7.57,100.38,7.21L103,24.62C101.56,25,100,25.4,98.28,25.83Z"/></g></g></svg>