<svg xmlns="http://www.w3.org/2000/svg" viewBox="0 0 147.87 150.89"><defs><style>.cls-1{fill:#d25089;}.cls-2{fill:#f092ae;}.cls-3{fill:#fff;}</style></defs><g id="圖層_2" data-name="圖層 2"><g id="ALL"><path class="cls-1" d="M89.72,139.48c-5.7,10.71-8.14,10.85-11.18,11.41-2.77-.24-4.05-6.66-4.59-8.62l0,.06v-.06c-.55,2-1.83,8.38-4.59,8.62-3-.56-5.48-.7-11.18-11.41-4-7.45-7-10.49-7-22.42.56-17.74,9.48-15.62,22.8-41.63v0l0,0c13.31,26,22.24,23.89,22.8,41.63C96.75,129,93.68,132,89.72,139.48Z"/><path class="cls-1" d="M139.85,78c8.72,8.43,8.18,10.82,7.89,13.89-1,2.59-7.53,2-9.56,2l0,0h-.06c1.73,1.07,7.55,4.07,7,6.8-1.37,2.76-2.19,5.07-14.05,7.59-8.26,1.75-12,3.87-23.49.56-16.9-5.43-12.4-13.42-33.72-33.4h0l0,0c28.67-5.62,29.1-14.78,46.3-10.42C131.72,68.37,133.79,72.16,139.85,78Z"/><path class="cls-1" d="M8,78C-.7,86.46-.17,88.85.13,91.92c1,2.59,7.53,2,9.56,2l-.06,0H9.7c-1.74,1.07-7.55,4.07-7,6.8,1.37,2.76,2.19,5.07,14.05,7.59,8.26,1.75,12,3.87,23.49.56,16.9-5.43,12.39-13.42,33.71-33.4h0l0,0c-28.68-5.62-29.1-14.78-46.3-10.42C16.15,68.37,14.08,72.16,8,78Z"/><path class="cls-1" d="M49.45,14.17C38.58,8.78,36.51,10.09,33.72,11.4c-2.11,1.81.59,7.78,1.29,9.69L35,21l0,.06c-1.58-1.27-6.36-5.74-8.76-4.33-2.13,2.22-4,3.76-2.43,15.79,1.12,8.36.39,12.62,7.34,22.32C41.92,69,47.94,62.05,73.91,75.43v0h0C69.61,46.52,78.1,43,68.22,28.3,61.27,18.59,57,17.92,49.45,14.17Z"/><path class="cls-1" d="M98.42,14.17c10.87-5.39,12.94-4.08,15.73-2.77,2.11,1.81-.59,7.78-1.29,9.69l0-.05s0,.05,0,.06c1.58-1.27,6.36-5.74,8.75-4.33,2.14,2.22,4,3.76,2.44,15.79-1.12,8.36-.39,12.62-7.35,22.32C106,69,99.93,62.05,74,75.43v0h0C78.26,46.52,69.77,43,79.65,28.3,86.59,18.59,90.86,17.92,98.42,14.17Z"/><path class="cls-2" d="M89.72,11.41C84,.71,81.58.56,78.54,0,75.77.25,74.49,6.67,74,8.62l0-.06v.06C73.37,6.67,72.09.25,69.33,0c-3,.56-5.48.71-11.18,11.41-4,7.45-7,10.49-7,22.43.56,17.73,9.48,15.61,22.8,41.62v0l0,0c13.31-26,22.24-23.89,22.8-41.62C96.75,21.9,93.68,18.86,89.72,11.41Z"/><path class="cls-2" d="M139.85,72.86C148.57,64.43,148,62,147.74,59c-1-2.59-7.53-2-9.56-2l0,0h-.06c1.73-1.07,7.55-4.07,7-6.8-1.37-2.76-2.19-5.07-14.05-7.59-8.26-1.75-12-3.86-23.49-.56-16.9,5.43-12.4,13.42-33.72,33.4h0l0,0C102.61,81,103,90.17,120.24,85.81,131.72,82.52,133.79,78.73,139.85,72.86Z"/><path class="cls-2" d="M8,72.86C-.7,64.43-.17,62,.13,59c1-2.59,7.53-2,9.56-2l-.06,0H9.7c-1.74-1.07-7.55-4.07-7-6.8C4.05,47.35,4.87,45,16.73,42.52c8.26-1.75,12-3.86,23.49-.56,16.9,5.43,12.39,13.42,33.71,33.4h0l0,0C45.25,81,44.83,90.17,27.63,85.81,16.15,82.52,14.08,78.73,8,72.86Z"/><path class="cls-2" d="M49.45,136.72c-10.87,5.39-12.94,4.08-15.73,2.77-2.11-1.81.59-7.77,1.29-9.68l0,0s0,0,0-.06c-1.58,1.27-6.36,5.75-8.76,4.33-2.13-2.22-4-3.76-2.43-15.78,1.12-8.37.39-12.63,7.34-22.32,10.79-14.1,16.81-7.18,42.78-20.56v0h0c-4.32,28.89,4.17,32.37-5.71,47.11C61.28,132.3,57,133,49.45,136.72Z"/><path class="cls-2" d="M98.42,136.72c10.87,5.39,12.94,4.08,15.73,2.77,2.11-1.81-.59-7.77-1.29-9.68l0,0,0-.06c1.58,1.27,6.36,5.75,8.75,4.33,2.14-2.22,4-3.76,2.44-15.78C123,110,123.69,105.71,116.73,96,106,81.92,99.93,88.84,74,75.46v0h0c4.33,28.89-4.16,32.37,5.72,47.11C86.59,132.3,90.86,133,98.42,136.72Z"/><polygon class="cls-3" points="74.6 100.8 73.27 100.8 73.27 77.96 61.85 97.74 60.69 97.07 72.11 77.29 52.33 88.71 51.66 87.55 71.44 76.13 48.6 76.13 48.6 74.79 71.44 74.79 51.66 63.37 52.33 62.21 72.11 73.63 60.69 53.85 61.85 53.18 73.27 72.96 73.27 50.12 74.6 50.12 74.6 72.96 86.02 53.18 87.18 53.85 75.76 73.63 95.54 62.21 96.21 63.37 76.43 74.79 99.27 74.79 99.27 76.13 76.43 76.13 96.21 87.55 95.54 88.71 75.76 77.29 87.18 97.07 86.02 97.74 74.6 77.96 74.6 100.8"/><path class="cls-3" d="M80.43,75.46A6.5,6.5,0,1,1,73.93,69,6.5,6.5,0,0,1,80.43,75.46Z"/><path class="cls-3" d="M53.75,62.86a1.63,1.63,0,1,1-1.63-1.63A1.63,1.63,0,0,1,53.75,62.86Z"/><path class="cls-3" d="M62.9,53.55a1.63,1.63,0,1,1-1.63-1.63A1.63,1.63,0,0,1,62.9,53.55Z"/><path class="cls-3" d="M75.57,50.12a1.64,1.64,0,1,1-1.64-1.63A1.63,1.63,0,0,1,75.57,50.12Z"/><path class="cls-3" d="M88.34,53.55a1.64,1.64,0,1,1-1.63-1.63A1.63,1.63,0,0,1,88.34,53.55Z"/><path class="cls-3" d="M97.59,62.86A1.63,1.63,0,1,1,96,61.23,1.63,1.63,0,0,1,97.59,62.86Z"/><path class="cls-3" d="M100.9,75.46a1.63,1.63,0,1,1-1.63-1.63A1.63,1.63,0,0,1,100.9,75.46Z"/><path class="cls-3" d="M50.23,75.46a1.63,1.63,0,1,1-1.63-1.63A1.63,1.63,0,0,1,50.23,75.46Z"/><path class="cls-3" d="M53.75,88.06a1.63,1.63,0,1,1-1.63-1.63A1.63,1.63,0,0,1,53.75,88.06Z"/><path class="cls-3" d="M62.9,97.38a1.63,1.63,0,1,1-1.63-1.64A1.63,1.63,0,0,1,62.9,97.38Z"/><path class="cls-3" d="M75.57,100.8a1.64,1.64,0,1,1-1.64-1.64A1.63,1.63,0,0,1,75.57,100.8Z"/><path class="cls-3" d="M88.11,97.38a1.63,1.63,0,1,1-1.63-1.64A1.63,1.63,0,0,1,88.11,97.38Z"/><path class="cls-3" d="M97.59,88.06A1.63,1.63,0,1,1,96,86.43,1.63,1.63,0,0,1,97.59,88.06Z"/></g></g></svg>