<svg xmlns="http://www.w3.org/2000/svg" xmlns:xlink="http://www.w3.org/1999/xlink" viewBox="0 0 148.55 143.01"><defs><style>.cls-1{fill:url(#未命名漸層_399);}.cls-2{fill:url(#未命名漸層_399-2);}.cls-3{fill:url(#未命名漸層_399-3);}.cls-4{fill:url(#未命名漸層_399-4);}.cls-5{fill:url(#未命名漸層_399-5);}.cls-6{fill:#f3c640;}</style><linearGradient id="未命名漸層_399" x1="74.16" y1="75.33" x2="74.16" y2="0.17" gradientUnits="userSpaceOnUse"><stop offset="0" stop-color="#d8e698"/><stop offset="0.04" stop-color="#deeaa9"/><stop offset="0.1" stop-color="#e9f1c4"/><stop offset="0.18" stop-color="#f1f6da"/><stop offset="0.28" stop-color="#f7faeb"/><stop offset="0.39" stop-color="#fcfdf6"/><stop offset="0.55" stop-color="#fefffd"/><stop offset="1" stop-color="#fff"/></linearGradient><linearGradient id="未命名漸層_399-2" x1="74.69" y1="76.15" x2="147.33" y2="51.39" xlink:href="#未命名漸層_399"/><linearGradient id="未命名漸層_399-3" x1="74.67" y1="76.56" x2="119.77" y2="136.68" xlink:href="#未命名漸層_399"/><linearGradient id="未命名漸層_399-4" x1="73.08" y1="75.3" x2="2.52" y2="52.34" xlink:href="#未命名漸層_399"/><linearGradient id="未命名漸層_399-5" x1="74.17" y1="75.91" x2="26.97" y2="139.34" xlink:href="#未命名漸層_399"/></defs><g id="圖層_2" data-name="圖層 2"><g id="ALL"><path class="cls-1" d="M80.06,0c-1.72-.14-5.37,6.1-5.9,10.86C73.64,6.1,70-.14,68.26,0,54.68,1.14,46.35,15.72,46.35,34.84c0,21.13,15.75,32.4,27.81,40.79C86.22,67.24,102,56,102,34.84,102,15.72,93.64,1.14,80.06,0Z"/><path class="cls-2" d="M148,57.76c-.4-1.67-7.47-3.19-12.16-2.2,4.36-2,9.14-7.42,8.47-9-5.34-12.54-21.79-15.89-40-9.91-20.06,6.61-25.84,25.11-30,39.19,11.74,8.83,27.38,20.26,47.44,13.65C140,83.5,151.19,71,148,57.76Z"/><path class="cls-3" d="M114.7,140.16c1.47-.91.7-8.1-1.71-12.24,3.25,3.51,9.91,6.36,11.2,5.22,10.24-9,8.28-25.67-3.09-41-12.56-17-31.93-16.69-46.62-16.26-4.71,13.91-10.67,32.35,1.89,49.33C87.74,140.55,103.11,147.31,114.7,140.16Z"/><path class="cls-4" d="M.53,57.76c.4-1.67,7.48-3.19,12.16-2.2-4.35-2-9.14-7.42-8.46-9C9.56,34,26,30.66,44.18,36.64c20.06,6.61,25.84,25.11,30,39.19C62.47,84.66,46.83,96.09,26.77,89.48,8.6,83.5-2.63,71,.53,57.76Z"/><path class="cls-5" d="M33.85,140.16c-1.47-.91-.7-8.1,1.71-12.24-3.25,3.51-9.9,6.36-11.2,5.22-10.24-9-8.28-25.67,3.09-41C40,75.11,59.38,75.41,74.07,75.84c4.71,13.91,10.68,32.35-1.88,49.33C60.82,140.55,45.45,147.31,33.85,140.16Z"/><polygon class="cls-6" points="75.07 103.07 73.62 103.07 73.62 78.41 61.29 99.77 60.04 99.05 72.37 77.69 51.01 90.02 50.29 88.77 71.65 76.44 46.99 76.44 46.99 74.99 71.65 74.99 50.29 62.66 51.01 61.41 72.37 73.74 60.04 52.38 61.29 51.66 73.62 73.02 73.62 48.35 75.07 48.35 75.07 73.02 87.4 51.66 88.65 52.38 76.32 73.74 97.68 61.41 98.4 62.66 77.04 74.99 101.7 74.99 101.7 76.44 77.04 76.44 98.4 88.77 97.68 90.02 76.32 77.69 88.65 99.05 87.4 99.77 75.07 78.41 75.07 103.07"/><path class="cls-6" d="M81.36,75.71a7,7,0,1,1-7-7A7,7,0,0,1,81.36,75.71Z"/><path class="cls-6" d="M52.55,62.11a1.76,1.76,0,1,1-1.76-1.76A1.76,1.76,0,0,1,52.55,62.11Z"/><path class="cls-6" d="M62.43,52.05a1.76,1.76,0,1,1-1.76-1.76A1.76,1.76,0,0,1,62.43,52.05Z"/><path class="cls-6" d="M76.11,48.35a1.77,1.77,0,1,1-1.76-1.76A1.76,1.76,0,0,1,76.11,48.35Z"/><path class="cls-6" d="M89.9,52.05a1.77,1.77,0,1,1-1.76-1.76A1.76,1.76,0,0,1,89.9,52.05Z"/><path class="cls-6" d="M99.89,62.11a1.76,1.76,0,1,1-1.76-1.76A1.76,1.76,0,0,1,99.89,62.11Z"/><path class="cls-6" d="M103.47,75.71A1.77,1.77,0,1,1,101.71,74,1.76,1.76,0,0,1,103.47,75.71Z"/><path class="cls-6" d="M48.75,75.71A1.76,1.76,0,1,1,47,74,1.76,1.76,0,0,1,48.75,75.71Z"/><path class="cls-6" d="M52.55,89.32a1.76,1.76,0,1,1-1.76-1.76A1.75,1.75,0,0,1,52.55,89.32Z"/><path class="cls-6" d="M62.43,99.38a1.76,1.76,0,1,1-1.76-1.76A1.76,1.76,0,0,1,62.43,99.38Z"/><path class="cls-6" d="M76.11,103.07a1.77,1.77,0,1,1-1.76-1.76A1.76,1.76,0,0,1,76.11,103.07Z"/><path class="cls-6" d="M89.66,99.38a1.77,1.77,0,1,1-1.76-1.76A1.76,1.76,0,0,1,89.66,99.38Z"/><circle class="cls-6" cx="98.13" cy="89.32" r="1.76"/></g></g></svg>