<svg xmlns="http://www.w3.org/2000/svg" xmlns:xlink="http://www.w3.org/1999/xlink" viewBox="0 0 147.8 141.76"><defs><style>.cls-1{fill:url(#未命名漸層_324);}.cls-2{fill:url(#未命名漸層_324-2);}.cls-3{fill:url(#未命名漸層_325);}.cls-4{fill:url(#未命名漸層_324-3);}.cls-5{fill:url(#未命名漸層_324-4);}.cls-6{fill:#f3c640;}</style><linearGradient id="未命名漸層_324" x1="74.67" y1="74.71" x2="73.26" y2="-1.32" gradientUnits="userSpaceOnUse"><stop offset="0" stop-color="#d69bbd"/><stop offset="0.5" stop-color="#f092ae"/><stop offset="1" stop-color="#fadce9"/></linearGradient><linearGradient id="未命名漸層_324-2" x1="75.96" y1="74.32" x2="147.07" y2="54.34" xlink:href="#未命名漸層_324"/><linearGradient id="未命名漸層_325" x1="72.91" y1="74.73" x2="1.85" y2="54.56" gradientUnits="userSpaceOnUse"><stop offset="0" stop-color="#cc7eac"/><stop offset="0.5" stop-color="#f092ae"/><stop offset="1" stop-color="#fadce9"/></linearGradient><linearGradient id="未命名漸層_324-3" x1="73.83" y1="75.26" x2="30.61" y2="138.02" xlink:href="#未命名漸層_324"/><linearGradient id="未命名漸層_324-4" x1="73.61" y1="75.05" x2="117.85" y2="138.72" xlink:href="#未命名漸層_324"/></defs><g id="圖層_2" data-name="圖層 2"><g id="ALL"><path class="cls-1" d="M92,10.87C86.57,1.28,81.54.56,78.51,0c-2.77.25-4.05,6.67-4.59,8.62a.11.11,0,0,1,0-.06l0,.06C73.34,6.67,72.06.25,69.29,0c-3,.56-8.06,1.28-13.46,10.87-4.13,7.35-5.38,10.93-5.37,22.87,1.63,18,10.11,15.71,23.42,41.72l0,0,0,0c13.31-26,21.79-23.71,23.42-41.72C97.35,21.8,96.1,18.22,92,10.87Z"/><path class="cls-2" d="M141,74.51c7.67-7.9,6.94-12.92,6.62-16-1-2.58-7.54-2-9.57-2l0,0H138c1.72-1.08,7.52-4.12,7-6.85-1.4-2.75-3.5-7.36-14.23-9.83-8.23-1.89-12-2.07-23.46,1.31C90.5,47.83,95.11,55.31,73.93,75.44h0l0,0c28.71,5.41,28.91,14.2,46.65,10.66C132,82.76,135.12,80.56,141,74.51Z"/><path class="cls-3" d="M6.8,74.51c-7.68-7.9-6.94-12.92-6.62-16,1-2.58,7.54-2,9.57-2l-.05,0h.06c-1.72-1.08-7.52-4.12-7-6.85,1.39-2.75,3.5-7.36,14.23-9.83,8.22-1.89,12-2.07,23.46,1.31,16.81,6.67,12.21,14.15,33.38,34.28h0l0,0C45.14,80.88,45,89.67,27.21,86.13,15.76,82.76,12.68,80.56,6.8,74.51Z"/><path class="cls-4" d="M51.89,138.84c-9.91,4.8-14.44,2.53-17.25,1.26-2.14-1.78.47-7.78,1.14-9.7l-.05,0,0-.06c-1.56,1.3-6.27,5.85-8.69,4.47-2.17-2.19-5.89-5.64-4.86-16.6.79-8.4,1.8-12,8.61-21.86,11.61-13.87,17.27-7.15,43-20.93v0h0c-3.88,29,4.4,31.9-4.52,47.63C62.54,132.92,59.48,135.16,51.89,138.84Z"/><path class="cls-5" d="M95.91,138.84c9.9,4.8,14.44,2.53,17.25,1.26,2.14-1.78-.47-7.78-1.14-9.7l0,0a.14.14,0,0,1,0-.06c1.56,1.3,6.27,5.85,8.69,4.47,2.17-2.19,5.89-5.64,4.86-16.6-.79-8.4-1.8-12-8.61-21.86-11.61-13.87-17.27-7.15-43-20.93v0h0c3.88,29-4.4,31.9,4.53,47.63C85.26,132.92,88.32,135.16,95.91,138.84Z"/><polygon class="cls-6" points="74.53 100.8 73.2 100.8 73.2 77.96 61.78 97.73 60.62 97.07 72.04 77.29 52.26 88.71 51.59 87.55 71.37 76.13 48.53 76.13 48.53 74.79 71.37 74.79 51.59 63.37 52.26 62.21 72.04 73.63 60.62 53.85 61.78 53.18 73.2 72.96 73.2 50.12 74.53 50.12 74.53 72.96 85.95 53.18 87.11 53.85 75.69 73.63 95.47 62.21 96.14 63.37 76.36 74.79 99.2 74.79 99.2 76.13 76.36 76.13 96.14 87.55 95.47 88.71 75.69 77.29 87.11 97.07 85.95 97.73 74.53 77.96 74.53 100.8"/><path class="cls-6" d="M80.36,75.46A6.5,6.5,0,1,1,73.86,69,6.5,6.5,0,0,1,80.36,75.46Z"/><path class="cls-6" d="M53.68,62.86a1.63,1.63,0,1,1-1.63-1.63A1.63,1.63,0,0,1,53.68,62.86Z"/><path class="cls-6" d="M62.83,53.55a1.63,1.63,0,1,1-1.63-1.63A1.63,1.63,0,0,1,62.83,53.55Z"/><path class="cls-6" d="M75.5,50.12a1.64,1.64,0,1,1-1.64-1.63A1.64,1.64,0,0,1,75.5,50.12Z"/><path class="cls-6" d="M88.27,53.55a1.64,1.64,0,1,1-1.63-1.63A1.63,1.63,0,0,1,88.27,53.55Z"/><path class="cls-6" d="M97.52,62.86a1.63,1.63,0,1,1-1.63-1.63A1.63,1.63,0,0,1,97.52,62.86Z"/><path class="cls-6" d="M100.83,75.46a1.63,1.63,0,1,1-1.63-1.63A1.63,1.63,0,0,1,100.83,75.46Z"/><path class="cls-6" d="M50.16,75.46a1.63,1.63,0,1,1-1.63-1.63A1.63,1.63,0,0,1,50.16,75.46Z"/><path class="cls-6" d="M53.68,88.06a1.63,1.63,0,1,1-1.63-1.63A1.63,1.63,0,0,1,53.68,88.06Z"/><path class="cls-6" d="M62.83,97.38a1.63,1.63,0,1,1-1.63-1.64A1.63,1.63,0,0,1,62.83,97.38Z"/><path class="cls-6" d="M75.5,100.8a1.64,1.64,0,1,1-1.64-1.63A1.64,1.64,0,0,1,75.5,100.8Z"/><path class="cls-6" d="M88,97.38a1.63,1.63,0,1,1-1.63-1.64A1.63,1.63,0,0,1,88,97.38Z"/><path class="cls-6" d="M97.52,88.06a1.63,1.63,0,1,1-1.63-1.63A1.63,1.63,0,0,1,97.52,88.06Z"/></g></g></svg>