<svg xmlns="http://www.w3.org/2000/svg" xmlns:xlink="http://www.w3.org/1999/xlink" viewBox="0 0 149.15 143.24"><defs><style>.cls-1{fill:url(#未命名漸層_199);}.cls-2{fill:url(#未命名漸層_190);}.cls-3{fill:url(#未命名漸層_192);}.cls-4{fill:url(#未命名漸層_194);}.cls-5{fill:url(#未命名漸層_197);}.cls-6{fill:#fff;}</style><linearGradient id="未命名漸層_199" x1="72.53" y1="75.58" x2="1.62" y2="52.49" gradientUnits="userSpaceOnUse"><stop offset="0" stop-color="#d25089"/><stop offset="0.02" stop-color="#d4588e"/><stop offset="0.15" stop-color="#e490b5"/><stop offset="0.26" stop-color="#f0b9d1"/><stop offset="0.35" stop-color="#f7d3e3"/><stop offset="0.4" stop-color="#fadce9"/><stop offset="0.46" stop-color="#fbe6ef"/><stop offset="0.59" stop-color="#fdf4f8"/><stop offset="0.74" stop-color="#fffcfd"/><stop offset="1" stop-color="#fff"/></linearGradient><linearGradient id="未命名漸層_190" x1="74.58" y1="75.14" x2="74.58" y2="0.03" gradientUnits="userSpaceOnUse"><stop offset="0" stop-color="#d25089"/><stop offset="0.07" stop-color="#e080aa"/><stop offset="0.14" stop-color="#eba8c5"/><stop offset="0.2" stop-color="#f3c4d9"/><stop offset="0.26" stop-color="#f8d6e5"/><stop offset="0.3" stop-color="#fadce9"/><stop offset="0.37" stop-color="#fce9f1"/><stop offset="0.49" stop-color="#fef6f9"/><stop offset="0.64" stop-color="#fffdfe"/><stop offset="1" stop-color="#fff"/></linearGradient><linearGradient id="未命名漸層_192" x1="76.29" y1="75.88" x2="147.09" y2="52.44" gradientUnits="userSpaceOnUse"><stop offset="0" stop-color="#d25089"/><stop offset="0.06" stop-color="#dd77a4"/><stop offset="0.13" stop-color="#e9a2c1"/><stop offset="0.2" stop-color="#f3c2d7"/><stop offset="0.26" stop-color="#f8d5e4"/><stop offset="0.3" stop-color="#fadce9"/><stop offset="0.37" stop-color="#fce9f1"/><stop offset="0.49" stop-color="#fef6f9"/><stop offset="0.64" stop-color="#fffdfe"/><stop offset="1" stop-color="#fff"/></linearGradient><linearGradient id="未命名漸層_194" x1="75.14" y1="76.89" x2="121.07" y2="138.37" gradientUnits="userSpaceOnUse"><stop offset="0" stop-color="#d25089"/><stop offset="0.05" stop-color="#db6f9e"/><stop offset="0.13" stop-color="#e89ebe"/><stop offset="0.2" stop-color="#f2c0d6"/><stop offset="0.26" stop-color="#f8d5e4"/><stop offset="0.3" stop-color="#fadce9"/><stop offset="0.37" stop-color="#fce9f1"/><stop offset="0.49" stop-color="#fef6f9"/><stop offset="0.64" stop-color="#fffdfe"/><stop offset="1" stop-color="#fff"/></linearGradient><linearGradient id="未命名漸層_197" x1="75.23" y1="77.7" x2="29.08" y2="136.38" gradientUnits="userSpaceOnUse"><stop offset="0" stop-color="#d25089"/><stop offset="0.06" stop-color="#de78a5"/><stop offset="0.14" stop-color="#eaa3c2"/><stop offset="0.2" stop-color="#f3c2d7"/><stop offset="0.26" stop-color="#f8d5e4"/><stop offset="0.3" stop-color="#fadce9"/><stop offset="0.37" stop-color="#fce9f1"/><stop offset="0.49" stop-color="#fef6f9"/><stop offset="0.64" stop-color="#fffdfe"/><stop offset="1" stop-color="#fff"/></linearGradient></defs><g id="圖層_2" data-name="圖層 2"><g id="ALL"><path class="cls-1" d="M8,54.86c-.38,1.19-6.8,1.9-7.26,3.37-4.09,13.2,10.57,26.84,29,32.67,20.15,6.35,33.3-6.29,44.85-15-4.37-14-8-31.68-28.11-38-18.24-5.75-37.07-3-42.24,9.66C3.57,49.09,8.38,53.47,8,54.86Z"/><path class="cls-2" d="M74.58,5.91C75.83,5.91,78.43,0,80,0c13.82.07,22.42,18.15,22.42,37.53,0,21.12-16,29.86-27.81,38.24C62.51,67.39,46.76,58.65,46.76,37.53,46.76,18.4,55.09,1.29,68.68.14,70.39,0,73.12,5.91,74.58,5.91Z"/><path class="cls-3" d="M141.21,54.86c.37,1.19,6.8,1.9,7.25,3.37,4.1,13.2-10.56,26.84-29,32.67-20.15,6.35-33.29-6.29-44.84-15,4.37-14,8-31.68,28.1-38,18.24-5.75,37.07-3,42.25,9.66C145.58,49.09,140.77,53.47,141.21,54.86Z"/><path class="cls-4" d="M116.35,132.27c-1,.74.42,7-.82,8-11.14,8.17-28.82-1.24-40.35-16.81-12.58-17-4.91-33.52-.42-47.29,14.69-.44,32.55-2.8,45.12,14.18,11.38,15.36,14.88,34.08,4.64,43.08C123.23,134.53,117.52,131.41,116.35,132.27Z"/><path class="cls-5" d="M33.46,132.27c1,.74-.42,7,.82,8C45.42,148.4,63.1,139,74.64,123.42c12.57-17,4.9-33.52.41-47.29-14.68-.44-32.54-2.8-45.12,14.18-11.38,15.36-14.87,34.08-4.64,43.08C26.59,134.53,32.29,131.41,33.46,132.27Z"/><polygon class="cls-6" points="75.3 103.13 73.85 103.13 73.85 78.47 61.52 99.83 60.27 99.11 72.6 77.75 51.24 90.08 50.52 88.83 71.88 76.5 47.22 76.5 47.22 75.05 71.88 75.05 50.52 62.72 51.24 61.47 72.6 73.8 60.27 52.44 61.52 51.72 73.85 73.08 73.85 48.41 75.3 48.41 75.3 73.08 87.63 51.72 88.88 52.44 76.55 73.8 97.91 61.47 98.63 62.72 77.27 75.05 101.94 75.05 101.94 76.5 77.27 76.5 98.63 88.83 97.91 90.08 76.55 77.75 88.88 99.11 87.63 99.83 75.3 78.47 75.3 103.13"/><circle class="cls-6" cx="74.58" cy="75.77" r="7.01"/><path class="cls-6" d="M52.79,62.17A1.77,1.77,0,1,1,51,60.41,1.76,1.76,0,0,1,52.79,62.17Z"/><path class="cls-6" d="M62.66,52.11a1.76,1.76,0,1,1-1.76-1.76A1.76,1.76,0,0,1,62.66,52.11Z"/><path class="cls-6" d="M76.34,48.41a1.77,1.77,0,1,1-1.76-1.76A1.76,1.76,0,0,1,76.34,48.41Z"/><path class="cls-6" d="M90.13,52.11a1.76,1.76,0,1,1-1.76-1.76A1.76,1.76,0,0,1,90.13,52.11Z"/><path class="cls-6" d="M100.12,62.17a1.76,1.76,0,1,1-1.76-1.76A1.76,1.76,0,0,1,100.12,62.17Z"/><path class="cls-6" d="M103.7,75.77A1.77,1.77,0,1,1,101.94,74,1.76,1.76,0,0,1,103.7,75.77Z"/><path class="cls-6" d="M49,75.77A1.76,1.76,0,1,1,47.22,74,1.76,1.76,0,0,1,49,75.77Z"/><path class="cls-6" d="M52.79,89.38A1.77,1.77,0,1,1,51,87.62,1.76,1.76,0,0,1,52.79,89.38Z"/><path class="cls-6" d="M62.66,99.44a1.76,1.76,0,1,1-1.76-1.76A1.76,1.76,0,0,1,62.66,99.44Z"/><path class="cls-6" d="M76.34,103.13a1.77,1.77,0,1,1-1.76-1.76A1.76,1.76,0,0,1,76.34,103.13Z"/><path class="cls-6" d="M89.89,99.44a1.77,1.77,0,1,1-1.76-1.76A1.76,1.76,0,0,1,89.89,99.44Z"/><path class="cls-6" d="M100.12,89.38a1.76,1.76,0,1,1-1.76-1.76A1.76,1.76,0,0,1,100.12,89.38Z"/></g></g></svg>