<svg xmlns="http://www.w3.org/2000/svg" viewBox="0 0 326.15 77.44"><defs><style>.cls-1{fill:#fff;}</style></defs><g id="圖層_2" data-name="圖層 2"><g id="ALL"><path class="cls-1" d="M70.11,32.21s5.85,4.7,9.39,7.91c-.25.91-1.07,1.32-2.31,1.32H69.61c-1.73,7-4,12.77-7.33,17.63,21.26,7.74,15.08,21.66,6.51,17.55-2.23-3.14-6.51-7.25-12.19-11.46-7,5.94-17.22,9.73-33,12.11l-.41-1.15c12.69-3.79,21.26-8.48,27-15.16-2.55-1.56-5.35-3-8.23-4.45-.83,1.82-1.57,3.38-2.23,4.7-2.14,1-6.26,1-10-.66,2.39-4.53,5.68-11.94,8.57-19.11h-5.6c-.33,3.87-4.37,6-7.83,2.63.08-4-1.48-8.65-3.3-12.19V74.64c0,.9-4,2.8-7.58,2.8H12.11V44.65a62.05,62.05,0,0,1-11,13.59L0,57.26c5.93-9.4,9.39-22.08,11.29-34.44H2.47l-.66-2.31h10.3V0L24.55,1.24c-.16,1.23-.74,2.06-3,2.39V20.51l4.21-6.26s4.69,4.37,7.33,7.25c-.25.91-1,1.32-2.14,1.32h-9.4v6.92c6.92,2.72,10,6.34,10.88,9.39h6.75c2-5.27,3.71-10.13,4.54-13.26l12.35,2.3c-.25,1.16-1.15,1.9-3.46,2-.74,2.23-1.89,5.44-3.38,9H64.83ZM29.9,4c21.42,9.89,12,27.19,4,19.2.25-6.26-2.06-13.59-4.78-18.78ZM48.36,41.44C46.63,46,44.57,50.83,42.67,55A101.21,101.21,0,0,1,53.38,56.6a43.81,43.81,0,0,0,5.69-15.16Zm-1.73-40c19.36,11.53,9.47,28,1.89,19.69.5-6.43-1.07-13.76-2.88-19.36ZM79.75,7c-.33.83-1.16,1.07-2.72.91A86.29,86.29,0,0,1,58.9,32.38l-.82-.91c4.28-8.4,8-21.67,9.23-29.66Z"/><path class="cls-1" d="M114.43,4.78s5.35,4.45,8.4,7.58c-.25.9-1.07,1.32-2.22,1.32H107.26l.91,7.25c-1.4,1.81-5,2.55-9.23,2.47l-1.15-9.72H84l-.66-2.39H97.54L96.3.49l12.11.83c-.08,1-.74,1.89-2.38,2.31l.9,7.66h2.88ZM84.11,53.88c7.66-6.59,16.31-18.13,21.42-30.48l12.61,5.43c-.42,1-1.57,1.65-3.38,1.4a72.37,72.37,0,0,1-7.33,8.82l3.62,1.4c-.25.74-1,1.32-2.55,1.57V75c-.09.66-4,2.39-7.66,2.39H99.11V46.46A74.12,74.12,0,0,1,84.85,54.7Zm72.42,11.2c2.63,1.07,3.37,2.14,3.37,4C159.9,73.24,156,75,142,75h-8.49c-8.57,0-10.79-1.81-10.79-8.65V24.71L135,25.87c-.08,1.07-.82,1.89-2.8,2.14V43.09h11.29l5-7s5.69,4.78,9.07,8.08c-.25.9-1.16,1.32-2.39,1.32h-23V63.76c0,1.57.66,2.15,3.46,2.15H143a60.42,60.42,0,0,0,6.26-.17,2.6,2.6,0,0,0,2.14-1.15c1-1.49,2.39-5.85,3.87-11h.91Zm-3.3-60.3s5.44,4.45,8.49,7.58c-.17.9-1,1.32-2.15,1.32h-17l-1.23,7.9c-1.73,1.32-5.44,1.9-9.48,1.08l1.4-9h-7.74l-.66-2.39h8.73L135.19.49,147.05,2.8c-.25,1-1,1.81-3.21,2l-1,6.51h5.85Z"/><path class="cls-1" d="M233.8,38.31s6.34,4.69,10.38,8.07c-.25.91-1.15,1.32-2.39,1.32h-31.3v17c0,6.92-2.06,11.78-15.08,12.69-.25-3.38-.91-5.93-2.8-7.42s-4.37-2.71-10.3-3.62V65.33s12.85.82,15.49.82c1.48,0,2.06-.66,2.06-1.81V47.7H166.41l-.66-2.39h34.11V29.9H170.94l-.66-2.38h29.58V13.84c-9.56.74-19.69,1.15-29.08,1.07l-.25-1.32C189.89,11.2,213.37,5.44,225.31.17L235.45,10c-.91.74-2.8.9-5.69-.17-5.52,1.16-12.11,2.15-19.27,3V27.52h14.33l5.6-7s6.26,4.78,10.14,8.08c-.25.9-1.16,1.31-2.39,1.31H210.49V45.31H228Z"/><path class="cls-1" d="M284.14,19.61a5.29,5.29,0,0,1-3.3,1.64V50.42c0,5.52-.91,8.65-8.07,9.31a14.93,14.93,0,0,0-.74-5.6A3.7,3.7,0,0,0,269.55,52V74.89c-.08.57-3,2.38-6.09,2.38h-1.24V19.94h-4V58.08c0,.74-3.14,2.55-6.43,2.55h-1.24V14.09l8.08,3.46h3.21V.49l11.12,1.08c-.08,1.15-.82,2-3,2.22V17.55h2.63l3.46-4Zm-14.59,31c.83.09,2.15.17,2.8.17.83,0,1.08-.41,1.08-1.24V19.94h-3.88Zm56.52-.82c-.33.66-1.24.74-2.47.33-3.3,1.73-9.15,4.2-14,6.1a33.8,33.8,0,0,0,16.56,11.12l-.08.9c-3.3,1-5.93,4-6.84,8.74-11-6.68-15.73-17.06-18-34.36h-5.93V64.92c3.29-.66,6.83-1.49,10.38-2.31l.24.82a171.83,171.83,0,0,1-15.65,11.29,7.06,7.06,0,0,1-2.47,2.64l-5.6-10c3.38-1.82,3.95-2.72,3.95-4.29V42.59h-3.95l-.66-2.39h5.85v-38l10.63,4h11.45l4.94-6s5.6,4.12,9,7.08c-.25.91-1.07,1.32-2.22,1.32H296.66v8.9h11.86l4.37-5.44s5,3.71,8.07,6.51c-.25.9-1.07,1.32-2.22,1.32H296.66v9.14h12l4.36-5.44s5,3.71,8.08,6.51c-.25.91-1.08,1.32-2.23,1.32H296.66V40.2h16.06L317.58,34s5.44,4.29,8.57,7.25A2,2,0,0,1,324,42.59h-21.5a42.49,42.49,0,0,0,5.43,11.54,116.51,116.51,0,0,0,7.91-10.8Z"/></g></g></svg>