<svg xmlns="http://www.w3.org/2000/svg" viewBox="0 0 281.29 163.79"><defs><style>.cls-1{fill:#f4b3c2;}.cls-2{fill:#f7c9dd;}.cls-3{fill:#fff;}.cls-4{fill:#b70b63;}</style></defs><g id="圖層_2" data-name="圖層 2"><g id="ALL"><path class="cls-1" d="M89.72,152.37c-5.7,10.71-8.14,10.86-11.18,11.42-2.77-.25-4.05-6.67-4.59-8.63a.25.25,0,0,1,0,.07v-.07c-.55,2-1.83,8.38-4.59,8.63-3-.56-5.48-.71-11.18-11.42-4-7.45-7-10.48-7-22.42.56-17.73,9.48-15.61,22.8-41.62v0l0,0c13.31,26,22.24,23.89,22.8,41.62C96.75,141.89,93.68,144.92,89.72,152.37Z"/><path class="cls-1" d="M139.85,90.92c8.72,8.44,8.18,10.83,7.89,13.9-1,2.59-7.53,2.05-9.56,2l0,0h-.06c1.73,1.06,7.55,4.07,7,6.8-1.37,2.76-2.19,5.07-14.05,7.59-8.26,1.75-12,3.86-23.49.56-16.9-5.43-12.4-13.43-33.72-33.4h0l0,0C102.61,82.78,103,73.62,120.24,78,131.72,81.27,133.79,85.06,139.85,90.92Z"/><path class="cls-1" d="M8,90.92C-.7,99.36-.17,101.75.13,104.82c1,2.59,7.53,2.05,9.56,2l-.06,0H9.7c-1.74,1.06-7.55,4.07-7,6.8,1.37,2.76,2.19,5.07,14.05,7.59,8.26,1.75,12,3.86,23.49.56,16.9-5.43,12.39-13.43,33.71-33.4h0l0,0C45.25,82.78,44.83,73.62,27.63,78,16.15,81.27,14.08,85.06,8,90.92Z"/><path class="cls-1" d="M49.45,27.07C38.58,21.68,36.51,23,33.72,24.3c-2.11,1.81.59,7.77,1.29,9.68l0,0L35,34c-1.58-1.28-6.36-5.75-8.76-4.33-2.13,2.22-4,3.76-2.43,15.78,1.12,8.37.39,12.62,7.34,22.32,10.79,14.09,16.81,7.17,42.78,20.56v0h0C69.61,59.42,78.1,55.94,68.22,41.2,61.27,31.49,57,30.81,49.45,27.07Z"/><path class="cls-1" d="M98.42,27.07c10.87-5.39,12.94-4.08,15.73-2.77,2.11,1.81-.59,7.77-1.29,9.68l0,0s0,0,0,.06c1.58-1.28,6.36-5.75,8.75-4.33,2.14,2.22,4,3.76,2.44,15.78-1.12,8.37-.39,12.62-7.35,22.32C106,81.86,99.93,74.94,74,88.33v0h0c4.33-28.89-4.16-32.37,5.72-47.11C86.59,31.49,90.86,30.81,98.42,27.07Z"/><path class="cls-2" d="M89.72,24.31C84,13.6,81.58,13.46,78.54,12.9c-2.77.24-4.05,6.66-4.59,8.62l0-.06v.06c-.55-2-1.83-8.38-4.59-8.62-3,.56-5.48.7-11.18,11.41-4,7.45-7,10.49-7,22.42.56,17.74,9.48,15.62,22.8,41.63v0l0,0c13.31-26,22.24-23.89,22.8-41.63C96.75,34.8,93.68,31.76,89.72,24.31Z"/><path class="cls-2" d="M139.85,85.76c8.72-8.43,8.18-10.82,7.89-13.89-1-2.6-7.53-2.05-9.56-2l0,0h-.06c1.73-1.06,7.55-4.06,7-6.79-1.37-2.76-2.19-5.07-14.05-7.59-8.26-1.75-12-3.87-23.49-.56-16.9,5.43-12.4,13.42-33.72,33.4h0l0,0c28.67,5.61,29.1,14.78,46.3,10.42C131.72,95.42,133.79,91.63,139.85,85.76Z"/><path class="cls-2" d="M8,85.76C-.7,77.33-.17,74.94.13,71.87c1-2.6,7.53-2.05,9.56-2l-.06,0H9.7C8,68.74,2.15,65.74,2.68,63c1.37-2.76,2.19-5.07,14.05-7.59,8.26-1.75,12-3.87,23.49-.56,16.9,5.43,12.39,13.42,33.71,33.4h0l0,0c-28.68,5.61-29.1,14.78-46.3,10.42C16.15,95.42,14.08,91.63,8,85.76Z"/><path class="cls-2" d="M49.45,149.62c-10.87,5.39-12.94,4.08-15.73,2.77-2.11-1.81.59-7.78,1.29-9.69l0,0,0-.06c-1.58,1.28-6.36,5.75-8.76,4.34-2.13-2.22-4-3.77-2.43-15.79,1.12-8.36.39-12.62,7.34-22.32,10.79-14.09,16.81-7.17,42.78-20.55v0h0c-4.32,28.89,4.17,32.36-5.71,47.11C61.28,145.19,57,145.87,49.45,149.62Z"/><path class="cls-2" d="M98.42,149.62c10.87,5.39,12.94,4.08,15.73,2.77,2.11-1.81-.59-7.78-1.29-9.69l0,0s0,0,0-.06c1.58,1.28,6.36,5.75,8.75,4.34,2.14-2.22,4-3.77,2.44-15.79-1.12-8.36-.39-12.62-7.35-22.32C106,94.82,99.93,101.74,74,88.36v0h0c4.33,28.89-4.16,32.36,5.72,47.11C86.59,145.19,90.86,145.87,98.42,149.62Z"/><polygon class="cls-3" points="74.6 113.69 73.27 113.69 73.27 90.85 61.85 110.63 60.69 109.96 72.11 90.19 52.33 101.61 51.66 100.44 71.44 89.03 48.6 89.03 48.6 87.69 71.44 87.69 51.66 76.27 52.33 75.11 72.11 86.53 60.69 66.75 61.85 66.08 73.27 85.86 73.27 63.02 74.6 63.02 74.6 85.86 86.02 66.08 87.18 66.75 75.76 86.53 95.54 75.11 96.21 76.27 76.43 87.69 99.27 87.69 99.27 89.03 76.43 89.03 96.21 100.44 95.54 101.61 75.76 90.19 87.18 109.96 86.02 110.63 74.6 90.85 74.6 113.69"/><path class="cls-3" d="M80.43,88.36a6.5,6.5,0,1,1-6.5-6.49A6.5,6.5,0,0,1,80.43,88.36Z"/><path class="cls-3" d="M53.75,75.76a1.63,1.63,0,1,1-1.63-1.63A1.63,1.63,0,0,1,53.75,75.76Z"/><path class="cls-3" d="M62.9,66.44a1.63,1.63,0,1,1-1.63-1.63A1.64,1.64,0,0,1,62.9,66.44Z"/><path class="cls-3" d="M75.57,63a1.64,1.64,0,1,1-1.64-1.63A1.63,1.63,0,0,1,75.57,63Z"/><path class="cls-3" d="M88.34,66.44a1.64,1.64,0,1,1-1.63-1.63A1.64,1.64,0,0,1,88.34,66.44Z"/><path class="cls-3" d="M97.59,75.76A1.63,1.63,0,1,1,96,74.13,1.63,1.63,0,0,1,97.59,75.76Z"/><path class="cls-3" d="M100.9,88.36a1.63,1.63,0,1,1-1.63-1.63A1.63,1.63,0,0,1,100.9,88.36Z"/><path class="cls-3" d="M50.23,88.36a1.63,1.63,0,1,1-1.63-1.63A1.63,1.63,0,0,1,50.23,88.36Z"/><path class="cls-3" d="M53.75,101a1.63,1.63,0,1,1-1.63-1.63A1.63,1.63,0,0,1,53.75,101Z"/><path class="cls-3" d="M62.9,110.27a1.63,1.63,0,1,1-1.63-1.63A1.63,1.63,0,0,1,62.9,110.27Z"/><path class="cls-3" d="M75.57,113.69a1.64,1.64,0,1,1-1.64-1.63A1.63,1.63,0,0,1,75.57,113.69Z"/><path class="cls-3" d="M88.11,110.27a1.63,1.63,0,1,1-1.63-1.63A1.63,1.63,0,0,1,88.11,110.27Z"/><path class="cls-3" d="M97.59,101A1.63,1.63,0,1,1,96,99.33,1.63,1.63,0,0,1,97.59,101Z"/><path class="cls-4" d="M127.25,32.21s5.85,4.7,9.39,7.91c-.25.91-1.07,1.32-2.31,1.32h-7.58c-1.73,7-4,12.77-7.33,17.63,21.26,7.74,15.08,21.66,6.51,17.55-2.23-3.14-6.51-7.25-12.19-11.46-7,5.94-17.22,9.73-33,12.11l-.41-1.15c12.69-3.79,21.26-8.48,27-15.16-2.55-1.56-5.35-3-8.23-4.45-.83,1.82-1.57,3.38-2.23,4.7-2.14,1-6.26,1-10.05-.66,2.39-4.53,5.68-11.94,8.57-19.11h-5.6c-.33,3.87-4.37,6-7.83,2.63.08-4-1.48-8.65-3.3-12.19V74.64c0,.9-4,2.8-7.58,2.8H69.25V44.65a62.05,62.05,0,0,1-11,13.59l-1.07-1c5.93-9.4,9.39-22.08,11.29-34.44H59.61L59,20.51h10.3V0L81.69,1.24c-.16,1.23-.74,2.06-3,2.39V20.51l4.21-6.26s4.69,4.37,7.33,7.25c-.25.91-1,1.32-2.14,1.32h-9.4v6.92c6.92,2.72,10,6.34,10.88,9.39h6.75c2-5.27,3.71-10.13,4.53-13.26l12.36,2.3c-.25,1.16-1.15,1.9-3.46,2-.74,2.23-1.89,5.44-3.38,9H122ZM87,4c21.42,9.89,12,27.19,4,19.2C91.33,16.89,89,9.56,86.3,4.37ZM105.5,41.44C103.77,46,101.71,50.83,99.81,55a101.21,101.21,0,0,1,10.71,1.65,43.81,43.81,0,0,0,5.69-15.16Zm-1.73-40c19.36,11.53,9.47,28,1.89,19.69.5-6.43-1.07-13.76-2.88-19.36ZM136.89,7c-.33.83-1.16,1.07-2.72.91A86.29,86.29,0,0,1,116,32.38l-.82-.91c4.28-8.4,8-21.67,9.23-29.66Z"/><path class="cls-4" d="M171.57,4.78s5.35,4.45,8.4,7.58c-.25.9-1.07,1.32-2.22,1.32H164.4l.91,7.25c-1.4,1.81-4.95,2.55-9.23,2.47l-1.15-9.72H141.09l-.66-2.39h14.25L153.44.49l12.11.83c-.08,1-.74,1.89-2.38,2.31l.9,7.66H167Zm-30.32,49.1c7.66-6.59,16.31-18.13,21.42-30.48l12.61,5.43c-.42,1-1.57,1.65-3.38,1.4a72.37,72.37,0,0,1-7.33,8.82l3.62,1.4c-.25.74-1,1.32-2.55,1.57V75c-.09.66-4,2.39-7.66,2.39h-1.73V46.46A74.12,74.12,0,0,1,142,54.7Zm72.42,11.2c2.63,1.07,3.37,2.14,3.37,4,0,4.2-3.87,5.93-17.87,5.93h-8.49c-8.57,0-10.79-1.81-10.79-8.65V24.71l12.27,1.16c-.08,1.07-.82,1.89-2.8,2.14V43.09h11.29l5-7s5.69,4.78,9.07,8.08c-.25.9-1.16,1.32-2.39,1.32h-23V63.76c0,1.57.66,2.15,3.46,2.15h7.34a60.42,60.42,0,0,0,6.26-.17,2.6,2.6,0,0,0,2.14-1.15c1-1.49,2.39-5.85,3.87-11h.91Zm-3.3-60.3s5.44,4.45,8.49,7.58c-.17.9-1,1.32-2.15,1.32H199.66l-1.23,7.9c-1.73,1.32-5.44,1.9-9.48,1.08l1.4-9h-7.74L182,11.29h8.73L192.33.49,204.19,2.8c-.25,1-1,1.81-3.21,2l-1,6.51h5.85Z"/><path class="cls-4" d="M188.94,124.66s6.35,4.69,10.38,8.07c-.24.91-1.15,1.32-2.39,1.32h-31.3v17c0,6.92-2.06,11.78-15.08,12.69-.24-3.38-.9-5.93-2.8-7.42s-4.36-2.71-10.3-3.62v-1.07s12.86.82,15.49.82c1.49,0,2.06-.66,2.06-1.81V134.05H121.55l-.65-2.39H155V116.25H126.09l-.66-2.39H155V100.19c-9.55.74-19.69,1.15-29.08,1.07l-.25-1.32c19.36-2.39,42.84-8.15,54.79-13.43l10.13,9.81c-.9.74-2.8.9-5.68-.17-5.52,1.16-12.11,2.14-19.28,3v14.74H180l5.61-7s6.26,4.78,10.13,8.08c-.25.9-1.15,1.31-2.39,1.31H165.63v15.41h17.55Z"/><path class="cls-4" d="M239.28,106a5.31,5.31,0,0,1-3.3,1.64v29.17c0,5.52-.9,8.65-8.07,9.31a14.81,14.81,0,0,0-.74-5.61,3.64,3.64,0,0,0-2.47-2.14v22.9c-.09.58-3,2.39-6.1,2.39h-1.23V106.29h-4v38.14c0,.74-3.13,2.55-6.43,2.55h-1.23V100.44l8.07,3.46H217V86.84l11.12,1.07c-.08,1.16-.82,2-3,2.23V103.9h2.64l3.46-4Zm-14.58,31c.82.08,2.14.17,2.8.17.82,0,1.07-.41,1.07-1.24V106.29H224.7Zm56.51-.82c-.33.66-1.23.74-2.47.33-3.29,1.73-9.14,4.2-14,6.09a33.68,33.68,0,0,0,16.55,11.13l-.08.9c-3.29,1-5.93,4-6.84,8.73-10.95-6.67-15.73-17-18-34.35H250.4v22.33c3.3-.66,6.84-1.49,10.38-2.31l.25.82a174.32,174.32,0,0,1-15.66,11.29,6.91,6.91,0,0,1-2.47,2.64l-5.6-10.05c3.38-1.82,4-2.72,4-4.29V128.94h-4l-.66-2.39h5.85v-38l10.63,4h11.45l4.94-6s5.6,4.12,9,7.08c-.24.91-1.07,1.32-2.22,1.32H251.8v8.9h11.86L268,98.46s5,3.71,8.07,6.51c-.24.9-1.07,1.32-2.22,1.32H251.8v9.14h12L268.2,110s5,3.71,8.07,6.51c-.25.91-1.07,1.32-2.23,1.32H251.8v8.73h16.07l4.86-6.18s5.43,4.29,8.56,7.25a2,2,0,0,1-2.14,1.32h-21.5a42.45,42.45,0,0,0,5.44,11.53A117,117,0,0,0,271,129.68Z"/></g></g></svg>