<svg xmlns="http://www.w3.org/2000/svg" xmlns:xlink="http://www.w3.org/1999/xlink" viewBox="0 0 147.72 142.43"><defs><style>.cls-1{fill:url(#未命名漸層_377);}.cls-2{fill:url(#未命名漸層_377-2);}.cls-3{fill:url(#未命名漸層_377-3);}.cls-4{fill:url(#未命名漸層_377-4);}.cls-5{fill:url(#未命名漸層_377-5);}.cls-6{fill:#d25089;}</style><radialGradient id="未命名漸層_377" cx="73.84" cy="37.72" r="32.37" gradientUnits="userSpaceOnUse"><stop offset="0" stop-color="#fff"/><stop offset="0.35" stop-color="#fff"/><stop offset="0.52" stop-color="#fef6f9"/><stop offset="0.8" stop-color="#fadeea"/><stop offset="1" stop-color="#f7c9dd"/></radialGradient><radialGradient id="未命名漸層_377-2" cx="242.34" cy="-103.45" r="32.37" gradientTransform="translate(-56.4 -139.02) rotate(73.94)" xlink:href="#未命名漸層_377"/><radialGradient id="未命名漸層_377-3" cx="188.74" cy="-219.64" r="32.37" gradientTransform="translate(123.68 -181.53) rotate(144.89)" xlink:href="#未命名漸層_377"/><radialGradient id="未命名漸層_377-4" cx="235.95" cy="-81.26" r="32.37" gradientTransform="matrix(-0.28, 0.96, 0.96, 0.28, 181.03, -139.02)" xlink:href="#未命名漸層_377"/><radialGradient id="未命名漸層_377-5" cx="207.63" cy="-206.36" r="32.37" gradientTransform="matrix(0.82, 0.58, 0.58, -0.82, 0.96, -181.53)" xlink:href="#未命名漸層_377"/></defs><g id="圖層_2" data-name="圖層 2"><g id="ALL"><path class="cls-1" d="M95,12A23.16,23.16,0,0,0,78.42,0c-2.76.25-4,6.62-4.58,8.6C73.29,6.62,72,.25,69.25,0A23.18,23.18,0,0,0,52.67,12c-4.13,7.35-4.78,11.86-4.77,23.79,1.63,18,13.83,17.38,25.94,39.65,12.1-22.27,24.3-21.63,25.93-39.65C99.78,23.87,99.14,19.36,95,12Z"/><path class="cls-2" d="M140.64,78.46a23.19,23.19,0,0,0,7-19.25c-1-2.58-7.48-2.05-9.54-2,1.76-1.07,7.53-4.06,7-6.78a23.17,23.17,0,0,0-16.12-12.61c-8.22-1.94-12.73-1.31-24.19,2-16.86,6.55-12.88,18.1-30.92,35.89,24.74,5.47,27.51,17.37,45.27,13.95C130.56,86.34,134.72,84.47,140.64,78.46Z"/><path class="cls-3" d="M93.06,139.91a23.22,23.22,0,0,0,20.47.29c2.11-1.79-.5-7.74-1.2-9.68,1.59,1.31,6.3,5.79,8.7,4.4a23.16,23.16,0,0,0,6.66-19.35c-.85-8.4-2.92-12.46-9.79-22.22-11.69-13.8-21.3-6.26-44-17.51,2.9,25.17-7.44,31.67,1.58,47.35C82.33,133,85.45,136.27,93.06,139.91Z"/><path class="cls-4" d="M7.09,78.46a23.18,23.18,0,0,1-7-19.25c1-2.58,7.49-2.05,9.54-2-1.75-1.07-7.53-4.06-7-6.78A23.17,23.17,0,0,1,18.8,37.79c8.21-1.94,12.72-1.31,24.19,2,16.86,6.55,12.87,18.1,30.92,35.89C49.16,81.15,46.4,93.05,28.63,89.63,17.16,86.34,13,84.47,7.09,78.46Z"/><path class="cls-5" d="M54.66,139.91a23.23,23.23,0,0,1-20.47.29c-2.11-1.79.51-7.74,1.2-9.68-1.59,1.31-6.3,5.79-8.7,4.4A23.17,23.17,0,0,1,20,115.57c.84-8.4,2.91-12.46,9.78-22.22,11.69-13.8,21.31-6.26,44-17.51-2.91,25.17,7.44,31.67-1.59,47.35C65.39,133,62.27,136.27,54.66,139.91Z"/><polygon class="cls-6" points="74.48 100.79 73.15 100.79 73.15 77.95 61.73 97.73 60.57 97.06 71.99 77.28 52.21 88.7 51.54 87.54 71.32 76.12 48.48 76.12 48.48 74.78 71.32 74.78 51.54 63.36 52.21 62.2 71.99 73.62 60.57 53.84 61.73 53.17 73.15 72.95 73.15 50.11 74.48 50.11 74.48 72.95 85.91 53.17 87.06 53.84 75.64 73.62 95.42 62.2 96.09 63.36 76.31 74.78 99.15 74.78 99.15 76.12 76.31 76.12 96.09 87.54 95.42 88.7 75.64 77.28 87.06 97.06 85.91 97.73 74.48 77.95 74.48 100.79"/><path class="cls-6" d="M80.31,75.45A6.5,6.5,0,1,1,73.82,69,6.5,6.5,0,0,1,80.31,75.45Z"/><path class="cls-6" d="M53.64,62.85A1.64,1.64,0,1,1,52,61.22,1.63,1.63,0,0,1,53.64,62.85Z"/><path class="cls-6" d="M62.78,53.54a1.63,1.63,0,1,1-1.63-1.63A1.63,1.63,0,0,1,62.78,53.54Z"/><path class="cls-6" d="M75.45,50.11a1.64,1.64,0,1,1-1.63-1.63A1.63,1.63,0,0,1,75.45,50.11Z"/><path class="cls-6" d="M88.22,53.54a1.63,1.63,0,1,1-1.63-1.63A1.63,1.63,0,0,1,88.22,53.54Z"/><path class="cls-6" d="M97.48,62.85a1.64,1.64,0,1,1-1.64-1.63A1.64,1.64,0,0,1,97.48,62.85Z"/><path class="cls-6" d="M100.78,75.45a1.63,1.63,0,1,1-1.63-1.63A1.63,1.63,0,0,1,100.78,75.45Z"/><path class="cls-6" d="M50.11,75.45a1.63,1.63,0,1,1-1.63-1.63A1.63,1.63,0,0,1,50.11,75.45Z"/><path class="cls-6" d="M53.64,88.05A1.64,1.64,0,1,1,52,86.42,1.63,1.63,0,0,1,53.64,88.05Z"/><path class="cls-6" d="M62.78,97.37a1.63,1.63,0,1,1-1.63-1.63A1.63,1.63,0,0,1,62.78,97.37Z"/><path class="cls-6" d="M75.45,100.79a1.64,1.64,0,1,1-1.63-1.63A1.63,1.63,0,0,1,75.45,100.79Z"/><path class="cls-6" d="M88,97.37a1.63,1.63,0,1,1-1.63-1.63A1.63,1.63,0,0,1,88,97.37Z"/><path class="cls-6" d="M97.48,88.05a1.64,1.64,0,1,1-1.64-1.63A1.64,1.64,0,0,1,97.48,88.05Z"/></g></g></svg>