<svg xmlns="http://www.w3.org/2000/svg" xmlns:xlink="http://www.w3.org/1999/xlink" viewBox="0 0 149.15 143.24"><defs><style>.cls-1{fill:url(#未命名漸層_17);}.cls-2{fill:url(#未命名漸層_17-2);}.cls-3{fill:url(#未命名漸層_17-3);}.cls-4{fill:url(#未命名漸層_17-4);}.cls-5{fill:url(#未命名漸層_17-5);}.cls-6{fill:#fff;}</style><linearGradient id="未命名漸層_17" x1="74.58" y1="75.14" x2="74.58" y2="0.03" gradientUnits="userSpaceOnUse"><stop offset="0" stop-color="#b70b63"/><stop offset="0.5" stop-color="#c14284"/><stop offset="1" stop-color="#f092ae"/></linearGradient><linearGradient id="未命名漸層_17-2" x1="74.58" y1="63.8" x2="149.15" y2="63.8" xlink:href="#未命名漸層_17"/><linearGradient id="未命名漸層_17-3" x1="72.53" y1="75.58" x2="1.62" y2="52.49" xlink:href="#未命名漸層_17"/><linearGradient id="未命名漸層_17-4" x1="75.23" y1="77.7" x2="29.08" y2="136.38" xlink:href="#未命名漸層_17"/><linearGradient id="未命名漸層_17-5" x1="75.14" y1="76.89" x2="121.07" y2="138.37" xlink:href="#未命名漸層_17"/></defs><g id="圖層_2" data-name="圖層 2"><g id="ALL"><path class="cls-1" d="M74.58,5.91C75.83,5.91,78.43,0,80,0c13.82.07,22.42,18.15,22.42,37.53,0,21.12-16,29.86-27.81,38.24C62.51,67.39,46.76,58.65,46.76,37.53,46.76,18.4,55.09,1.29,68.68.14,70.39,0,73.12,5.91,74.58,5.91Z"/><path class="cls-2" d="M141.21,54.86c.37,1.19,6.8,1.9,7.25,3.37,4.1,13.2-10.56,26.84-29,32.67-20.15,6.35-33.29-6.29-44.84-15,4.37-14,8-31.68,28.1-38,18.24-5.75,37.07-3,42.25,9.66C145.58,49.09,140.77,53.47,141.21,54.86Z"/><path class="cls-3" d="M8,54.86c-.38,1.19-6.8,1.9-7.26,3.37-4.09,13.2,10.57,26.84,29,32.67,20.15,6.35,33.3-6.29,44.85-15-4.37-14-8-31.68-28.11-38-18.24-5.75-37.07-3-42.24,9.66C3.57,49.09,8.38,53.47,8,54.86Z"/><path class="cls-4" d="M33.46,132.27c1,.74-.42,7,.82,8C45.43,148.4,63.1,139,74.64,123.42c12.57-17,4.9-33.52.41-47.29-14.68-.44-32.54-2.8-45.12,14.18-11.38,15.36-14.87,34.08-4.64,43.08C26.59,134.53,32.29,131.41,33.46,132.27Z"/><path class="cls-5" d="M116.35,132.27c-1,.74.42,7-.82,8-11.14,8.17-28.82-1.24-40.35-16.81-12.58-17-4.91-33.52-.42-47.29,14.69-.44,32.55-2.8,45.12,14.18,11.38,15.36,14.88,34.08,4.64,43.08C123.23,134.53,117.52,131.41,116.35,132.27Z"/><polygon class="cls-6" points="75.47 110.35 73.68 110.35 73.68 79.9 58.46 106.27 56.91 105.38 72.14 79 45.76 94.23 44.87 92.69 71.25 77.46 40.79 77.46 40.79 75.67 71.25 75.67 44.87 60.45 45.76 58.9 72.14 74.13 56.91 47.75 58.46 46.86 73.68 73.24 73.68 42.78 75.47 42.78 75.47 73.24 90.7 46.86 92.24 47.75 77.02 74.13 103.39 58.9 104.28 60.45 77.91 75.67 108.36 75.67 108.36 77.46 77.91 77.46 104.28 92.69 103.39 94.23 77.02 79 92.24 105.38 90.7 106.27 75.47 79.9 75.47 110.35"/><path class="cls-6" d="M83.23,76.57a8.66,8.66,0,1,1-8.65-8.66A8.65,8.65,0,0,1,83.23,76.57Z"/><path class="cls-6" d="M47.67,59.77a2.18,2.18,0,1,1-2.18-2.18A2.18,2.18,0,0,1,47.67,59.77Z"/><path class="cls-6" d="M59.86,47.35a2.18,2.18,0,1,1-2.17-2.18A2.17,2.17,0,0,1,59.86,47.35Z"/><path class="cls-6" d="M76.75,42.78a2.18,2.18,0,1,1-2.17-2.17A2.18,2.18,0,0,1,76.75,42.78Z"/><path class="cls-6" d="M93.78,47.35a2.18,2.18,0,1,1-2.17-2.18A2.17,2.17,0,0,1,93.78,47.35Z"/><path class="cls-6" d="M106.13,59.77A2.18,2.18,0,1,1,104,57.59,2.18,2.18,0,0,1,106.13,59.77Z"/><path class="cls-6" d="M110.54,76.57a2.18,2.18,0,1,1-2.18-2.18A2.18,2.18,0,0,1,110.54,76.57Z"/><path class="cls-6" d="M43,76.57a2.18,2.18,0,1,1-2.18-2.18A2.18,2.18,0,0,1,43,76.57Z"/><path class="cls-6" d="M47.67,93.37a2.18,2.18,0,1,1-2.18-2.17A2.18,2.18,0,0,1,47.67,93.37Z"/><path class="cls-6" d="M59.86,105.79a2.18,2.18,0,1,1-2.17-2.17A2.18,2.18,0,0,1,59.86,105.79Z"/><path class="cls-6" d="M76.75,110.35a2.18,2.18,0,1,1-2.17-2.17A2.18,2.18,0,0,1,76.75,110.35Z"/><path class="cls-6" d="M93.48,105.79a2.18,2.18,0,1,1-2.17-2.17A2.18,2.18,0,0,1,93.48,105.79Z"/><path class="cls-6" d="M106.13,93.37A2.18,2.18,0,1,1,104,91.2,2.18,2.18,0,0,1,106.13,93.37Z"/></g></g></svg>