<svg xmlns="http://www.w3.org/2000/svg" viewBox="0 0 64.46 80"><defs><style>.cls-1{fill:#5e9dab;}</style></defs><g id="圖層_2" data-name="圖層 2"><g id="圖層_1-2" data-name="圖層 1"><polygon class="cls-1" points="17.84 29.5 17.84 37.15 32.23 37.15 46.62 37.15 46.62 29.5 32.23 29.5 17.84 29.5"/><polygon class="cls-1" points="13.78 43.78 13.78 51.43 32.23 51.43 50.68 51.43 50.68 43.78 32.23 43.78 13.78 43.78"/><polygon class="cls-1" points="13.26 58.07 13.26 65.72 32.23 65.72 51.2 65.72 51.2 58.07 32.23 58.07 13.26 58.07"/><polygon class="cls-1" points="10.96 72.35 10.96 80 32.23 80 53.5 80 53.5 72.35 32.23 72.35 10.96 72.35"/><polygon class="cls-1" points="57.25 42.71 51.96 38.22 32.23 38.22 12.5 38.22 7.21 42.71 32.23 42.71 57.25 42.71"/><polygon class="cls-1" points="62.55 57 57.25 52.51 32.23 52.51 7.21 52.51 1.91 57 32.23 57 62.55 57"/><polygon class="cls-1" points="64.46 71.28 59.16 66.79 32.23 66.79 5.29 66.79 0 71.28 32.23 71.28 64.46 71.28"/><path class="cls-1" d="M31.29,5h1.88l.44-3.61C33.84,0,32.23,0,32.23,0s-1.61,0-1.38,1.39Z"/><polygon class="cls-1" points="31.29 6.01 31.29 7.51 32.23 7.51 33.17 7.51 33.17 6.01 32.23 6.01 31.29 6.01"/><path class="cls-1" d="M52,28.43A33.09,33.09,0,0,1,34,11.12H30.47a33.09,33.09,0,0,1-18,17.31H52Z"/><polygon class="cls-1" points="34.66 10.43 33.61 7.71 32.23 7.71 30.85 7.71 29.8 10.43 32.23 10.43 34.66 10.43"/><polygon class="cls-1" points="33.45 5.18 32.23 5.18 31.01 5.18 31.01 5.73 32.23 5.73 33.45 5.73 33.45 5.18"/></g></g></svg>