<svg xmlns="http://www.w3.org/2000/svg" viewBox="0 0 110 43.64"><defs><style>.cls-1{fill:#5e9dab;}.cls-2{fill:#b1d5d1;}.cls-3{fill:#fff;}</style></defs><g id="圖層_2" data-name="圖層 2"><g id="圖層_1-2" data-name="圖層 1"><path class="cls-1" d="M110,43.64h0a41.27,41.27,0,1,0-82.53,0H110Z"/><path class="cls-2" d="M48.05,14.53a1.16,1.16,0,0,1-1.16,1.16h0a1.15,1.15,0,0,1-1.15-1.16V12.09a1.14,1.14,0,0,1,1.15-1.15h0a1.15,1.15,0,0,1,1.16,1.15Z"/><path class="cls-2" d="M57.26,19.76a1.16,1.16,0,0,1-1.16,1.15h0A1.16,1.16,0,0,1,55,19.76V17.32a1.16,1.16,0,0,1,1.15-1.16h0a1.16,1.16,0,0,1,1.16,1.16Z"/><path class="cls-2" d="M62.5,3.6a1.16,1.16,0,0,1-1.16,1.15h0A1.15,1.15,0,0,1,60.19,3.6V1.15A1.15,1.15,0,0,1,61.34,0h0A1.16,1.16,0,0,1,62.5,1.15Z"/><path class="cls-2" d="M65.89,6a1.14,1.14,0,0,1-1.15,1.15h0A1.15,1.15,0,0,1,63.58,6V3.53a1.16,1.16,0,0,1,1.16-1.16h0a1.15,1.15,0,0,1,1.15,1.16Z"/><path class="cls-2" d="M94.39,22.13a1.15,1.15,0,0,1-1.15,1.16h0a1.16,1.16,0,0,1-1.16-1.16V19.69a1.15,1.15,0,0,1,1.16-1.15h0a1.14,1.14,0,0,1,1.15,1.15Z"/><path class="cls-2" d="M106.38,33.5a1.16,1.16,0,0,1-1.15,1.15h0a1.16,1.16,0,0,1-1.16-1.15V31.05a1.16,1.16,0,0,1,1.16-1.15h0a1.16,1.16,0,0,1,1.15,1.15Z"/><path class="cls-2" d="M105.23,22.13a1.16,1.16,0,0,1-1.16,1.16h0a1.15,1.15,0,0,1-1.15-1.16V19.69a1.14,1.14,0,0,1,1.15-1.15h0a1.15,1.15,0,0,1,1.16,1.15Z"/><path class="cls-2" d="M55,43.64h0A27.48,27.48,0,1,0,0,43.64H55Z"/><path class="cls-3" d="M20.69,19.35a1,1,0,0,1-1,1h0a1,1,0,0,1-1-1V17.18a1,1,0,0,1,1-1h0a1,1,0,0,1,1,1Z"/><path class="cls-3" d="M38.83,26.54a1,1,0,0,1-1,1h0a1,1,0,0,1-1-1V24.38a1,1,0,0,1,1-1h0a1,1,0,0,1,1,1Z"/><path class="cls-3" d="M7.38,26.57a1,1,0,0,1-1,1h0a1,1,0,0,1-1-1V24.46a1,1,0,0,1,1-1h0a1,1,0,0,1,1,1Z"/><path class="cls-3" d="M10.78,22.74a1,1,0,0,1-1,1h0a1,1,0,0,1-1-1V20.58a1,1,0,0,1,1-1h0a1,1,0,0,1,1,1Z"/></g></g></svg>