<svg xmlns="http://www.w3.org/2000/svg" viewBox="0 0 110 45.06"><defs><style>.cls-1{fill:#b1d5d1;}.cls-2{fill:#fff;}.cls-3{fill:#5e9dab;}</style></defs><g id="圖層_2" data-name="圖層 2"><g id="圖層_1-2" data-name="圖層 1"><path class="cls-1" d="M42.67,14.69a9,9,0,1,1-9-9A9,9,0,0,1,42.67,14.69Z"/><path class="cls-1" d="M32.57,1.08A1.08,1.08,0,0,1,33.65,0h0a1.08,1.08,0,0,1,1.08,1.08V3.36a1.08,1.08,0,0,1-1.08,1.08h0a1.08,1.08,0,0,1-1.08-1.08Z"/><path class="cls-1" d="M25.79,3.49A1.09,1.09,0,0,1,26.18,2h0a1.09,1.09,0,0,1,1.48.39l1.15,2a1.08,1.08,0,0,1-.39,1.48h0A1.07,1.07,0,0,1,27,5.46Z"/><path class="cls-1" d="M21.25,8.79a1.08,1.08,0,0,1-.38-1.47h0a1.08,1.08,0,0,1,1.48-.39l2,1.16a1.08,1.08,0,0,1,.38,1.47h0a1.08,1.08,0,0,1-1.48.39Z"/><path class="cls-1" d="M19.92,15.86a1.08,1.08,0,0,1-1.08-1.08h0a1.07,1.07,0,0,1,1.08-1.07H22.2a1.08,1.08,0,0,1,1.08,1.08h0a1.08,1.08,0,0,1-1.08,1.08Z"/><path class="cls-1" d="M22.33,22.64a1.08,1.08,0,0,1-1.47-.38h0a1.08,1.08,0,0,1,.38-1.48l2-1.15a1.08,1.08,0,0,1,1.48.38h0a1.08,1.08,0,0,1-.39,1.48Z"/><path class="cls-1" d="M27.63,27.18a1.07,1.07,0,0,1-1.47.39h0a1.08,1.08,0,0,1-.39-1.48l1.16-2a1.07,1.07,0,0,1,1.47-.38h0a1.07,1.07,0,0,1,.39,1.47Z"/><path class="cls-1" d="M34.71,28.52a1.1,1.1,0,0,1-1.09,1.08h0a1.08,1.08,0,0,1-1.07-1.08V26.23a1.08,1.08,0,0,1,1.08-1.08h0a1.08,1.08,0,0,1,1.08,1.08Z"/><path class="cls-1" d="M41.48,26.1a1.08,1.08,0,0,1-.38,1.48h0a1.08,1.08,0,0,1-1.48-.39l-1.15-2a1.08,1.08,0,0,1,.38-1.47h0a1.08,1.08,0,0,1,1.48.38Z"/><path class="cls-1" d="M46,20.8a1.08,1.08,0,0,1,.39,1.48h0a1.08,1.08,0,0,1-1.48.38l-2-1.15A1.08,1.08,0,0,1,42.58,20h0a1.08,1.08,0,0,1,1.47-.38Z"/><path class="cls-1" d="M47.36,13.73a1.09,1.09,0,0,1,1.08,1.08h0a1.08,1.08,0,0,1-1.08,1.08H45.07A1.09,1.09,0,0,1,44,14.81h0a1.08,1.08,0,0,1,1.08-1.08Z"/><path class="cls-1" d="M45,7a1.07,1.07,0,0,1,1.47.39h0A1.09,1.09,0,0,1,46,8.82l-2,1.15a1.07,1.07,0,0,1-1.47-.39h0A1.09,1.09,0,0,1,43,8.1Z"/><path class="cls-1" d="M39.64,2.41A1.09,1.09,0,0,1,41.12,2h0a1.09,1.09,0,0,1,.39,1.48l-1.16,2a1.08,1.08,0,0,1-1.48.38h0a1.08,1.08,0,0,1-.38-1.48Z"/><path class="cls-1" d="M32.57,1.08A1.08,1.08,0,0,1,33.65,0h0a1.08,1.08,0,0,1,1.08,1.08V3.36a1.08,1.08,0,0,1-1.08,1.08h0a1.08,1.08,0,0,1-1.08-1.08Z"/><path class="cls-2" d="M109,45.06h0a40.51,40.51,0,0,0-81,0h81Z"/><path class="cls-3" d="M68.49,2.55A41.56,41.56,0,0,0,27,44.06v1h83v-1A41.56,41.56,0,0,0,68.49,2.55Zm37.89,41.33A37.88,37.88,0,0,0,86.46,10.69,8.56,8.56,0,0,1,76.12,11a8.55,8.55,0,0,1-15.27,0,8.46,8.46,0,0,1-4.93,1.57,8.56,8.56,0,0,1-5.41-1.92A37.87,37.87,0,0,0,30.6,43.88H29c.53-21.33,18-39.33,39.5-39.33s39,18,39.5,39.33Z"/><path class="cls-2" d="M55,45.06h0c0-14.9-12.08-27.71-27-27.71S1,30.16,1,45.06H55Z"/><path class="cls-3" d="M28,16.08c-15.43,0-28,13.29-28,28.71v.27H56v-.27C56,29.37,43.4,16.08,28,16.08ZM51.7,43.88c-.33-8.7-5.27-16.86-12.46-20.74a5.34,5.34,0,0,1-6.48.22,5.36,5.36,0,0,1-9.57,0,5.34,5.34,0,0,1-6.48-.22C9.52,27,4.58,35.18,4.25,43.88H2C2.55,30,14,18.08,28,18.08s25.43,11.94,26,25.8Z"/></g></g></svg>