<svg xmlns="http://www.w3.org/2000/svg" xmlns:xlink="http://www.w3.org/1999/xlink" viewBox="0 0 147.87 140.65"><defs><style>.cls-1{fill:url(#未命名漸層_80);}.cls-2{fill:url(#未命名漸層_80-2);}.cls-3{fill:url(#未命名漸層_80-3);}.cls-4{fill:url(#未命名漸層_80-4);}.cls-5{fill:url(#未命名漸層_80-5);}.cls-6{fill:#fff;}</style><linearGradient id="未命名漸層_80" x1="73.93" y1="73.87" x2="73.93" y2="0.27" gradientUnits="userSpaceOnUse"><stop offset="0" stop-color="#f092ae"/><stop offset="0.5" stop-color="#fadce9"/></linearGradient><linearGradient id="未命名漸層_80-2" x1="75.25" y1="76.04" x2="145.79" y2="53.89" xlink:href="#未命名漸層_80"/><linearGradient id="未命名漸層_80-3" x1="71.73" y1="74.39" x2="0.5" y2="54.59" xlink:href="#未命名漸層_80"/><linearGradient id="未命名漸層_80-4" x1="73.7" y1="76.7" x2="29.44" y2="136.78" xlink:href="#未命名漸層_80"/><linearGradient id="未命名漸層_80-5" x1="74.96" y1="77.17" x2="118.08" y2="136.82" xlink:href="#未命名漸層_80"/></defs><g id="圖層_2" data-name="圖層 2"><g id="ALL"><path class="cls-1" d="M89.72,11.41C84,.71,81.58.56,78.54,0,75.77.25,74.49,6.67,74,8.62l0-.06s0,0,0,.06C73.37,6.67,72.09.25,69.33,0c-3,.56-5.48.71-11.18,11.41-4,7.45-7,10.49-7,22.43.56,17.73,9.48,15.61,22.8,41.62v0l0,0c13.31-26,22.24-23.89,22.8-41.62C96.75,21.9,93.68,18.86,89.72,11.41Z"/><path class="cls-2" d="M139.85,72.86C148.57,64.43,148,62,147.74,59c-1-2.59-7.53-2-9.56-2l0,0h-.06c1.73-1.07,7.55-4.07,7-6.8-1.38-2.76-2.19-5.07-14.05-7.59-8.26-1.75-12-3.86-23.49-.56-16.9,5.43-12.4,13.42-33.72,33.4h0l0,0C102.61,81,103,90.17,120.24,85.81,131.72,82.52,133.79,78.73,139.85,72.86Z"/><path class="cls-3" d="M8,72.86C-.7,64.43-.17,62,.13,59c1-2.59,7.53-2,9.56-2l-.06,0H9.7c-1.74-1.07-7.55-4.07-7-6.8C4.05,47.35,4.87,45,16.73,42.52c8.26-1.75,12-3.86,23.49-.56,16.9,5.43,12.39,13.42,33.71,33.4h0l0,0C45.25,81,44.83,90.17,27.63,85.81,16.15,82.52,14.08,78.73,8,72.86Z"/><path class="cls-4" d="M49.45,136.72c-10.87,5.39-12.94,4.08-15.73,2.77-2.11-1.81.59-7.77,1.29-9.68l0,0,0-.06c-1.58,1.27-6.36,5.75-8.76,4.33-2.13-2.22-4-3.76-2.43-15.78,1.12-8.37.39-12.63,7.34-22.32,10.79-14.1,16.81-7.18,42.78-20.56v0h0c-4.32,28.89,4.17,32.37-5.71,47.11C61.27,132.3,57,133,49.45,136.72Z"/><path class="cls-5" d="M98.42,136.72c10.87,5.39,12.94,4.08,15.73,2.77,2.11-1.81-.59-7.77-1.29-9.68l0,0s0,0,0-.06c1.58,1.27,6.36,5.75,8.76,4.33,2.13-2.22,4-3.76,2.43-15.78C123,110,123.69,105.71,116.73,96,106,81.92,99.93,88.84,74,75.46v0h0c4.33,28.89-4.16,32.37,5.72,47.11C86.59,132.3,90.86,133,98.42,136.72Z"/><polygon class="cls-6" points="74.87 110.91 73 110.91 73 78.95 57.02 106.63 55.4 105.69 71.38 78.02 43.7 94 42.76 92.38 70.44 76.39 38.48 76.39 38.48 74.52 70.44 74.52 42.76 58.54 43.7 56.92 71.38 72.9 55.4 45.22 57.02 44.29 73 71.96 73 40 74.87 40 74.87 71.96 90.85 44.29 92.47 45.22 76.49 72.9 104.17 56.92 105.11 58.54 77.43 74.52 109.39 74.52 109.39 76.39 77.43 76.39 105.11 92.38 104.17 94 76.49 78.02 92.47 105.69 90.85 106.63 74.87 78.95 74.87 110.91"/><path class="cls-6" d="M83,75.46a9.09,9.09,0,1,1-9.09-9.08A9.08,9.08,0,0,1,83,75.46Z"/><path class="cls-6" d="M45.69,57.83a2.28,2.28,0,1,1-2.28-2.28A2.28,2.28,0,0,1,45.69,57.83Z"/><path class="cls-6" d="M58.49,44.8a2.28,2.28,0,1,1-2.28-2.29A2.28,2.28,0,0,1,58.49,44.8Z"/><path class="cls-6" d="M76.22,40a2.29,2.29,0,1,1-2.29-2.28A2.3,2.3,0,0,1,76.22,40Z"/><path class="cls-6" d="M94.09,44.8a2.29,2.29,0,1,1-2.28-2.29A2.28,2.28,0,0,1,94.09,44.8Z"/><path class="cls-6" d="M107,57.83a2.28,2.28,0,1,1-2.28-2.28A2.28,2.28,0,0,1,107,57.83Z"/><path class="cls-6" d="M111.67,75.46a2.28,2.28,0,1,1-2.28-2.28A2.28,2.28,0,0,1,111.67,75.46Z"/><path class="cls-6" d="M40.76,75.46a2.28,2.28,0,1,1-2.28-2.28A2.28,2.28,0,0,1,40.76,75.46Z"/><path class="cls-6" d="M45.69,93.1a2.28,2.28,0,1,1-2.28-2.29A2.28,2.28,0,0,1,45.69,93.1Z"/><path class="cls-6" d="M58.49,106.13a2.28,2.28,0,1,1-2.28-2.28A2.28,2.28,0,0,1,58.49,106.13Z"/><path class="cls-6" d="M76.22,110.91a2.29,2.29,0,1,1-2.29-2.28A2.3,2.3,0,0,1,76.22,110.91Z"/><path class="cls-6" d="M93.78,106.13a2.29,2.29,0,1,1-2.29-2.28A2.29,2.29,0,0,1,93.78,106.13Z"/><circle class="cls-6" cx="104.76" cy="93.1" r="2.28"/></g></g></svg>